<svg width="76" height="32" viewBox="0 0 76 32" fill="none" xmlns="http://www.w3.org/2000/svg">
<path fill-rule="evenodd" clip-rule="evenodd" d="M0 18.2431V18.1363C3.15464 17.505 13.7608 13.0565 20.07 14.5717C26.3793 16.0869 31.5464 18.5377 37.8557 20.6842C44.1649 22.7887 50.4742 22.7887 56.7835 21.8627C63.0928 20.9789 69.4021 19.169 72.5567 18.2431L75.7113 17.3171V22.7887H72.5567C69.4021 22.7887 63.0928 22.7887 56.7835 22.7887C50.4742 22.7887 44.1649 22.7887 37.8557 22.7887C31.5464 22.7887 25.2371 22.7887 18.9278 22.7887C12.6186 22.7887 6.30928 22.7887 3.15464 22.7887H0V18.2431Z" fill="#FAF9F9"/>
<path d="M7.91258 26.3291L14.5633 9.65479H19.3138L25.9645 26.3291H24.0643C24.0643 23.9697 23.7239 21.927 23.043 20.2009L22.6154 19.1083H15.5372L12.6631 26.3291H7.91258ZM19.0763 10.2486L15.7272 18.6333H22.4254L19.0763 10.2486ZM31.8915 26.3291H27.141V9.65479H31.8915V26.3291ZM38.451 26.6854C37.3583 26.6854 36.4558 26.4954 35.7432 26.1153C35.0306 25.7353 34.508 25.2523 34.1755 24.6664C33.843 24.0805 33.6767 23.463 33.6767 22.8137C33.6767 21.4994 34.0963 20.391 34.9356 19.4884C35.7907 18.5858 36.812 17.8653 37.9997 17.3269C39.1873 16.7726 40.7075 16.1788 42.5602 15.5454L43.1302 15.3554C43.1302 13.5344 42.5839 12.6239 41.4913 12.6239C40.5887 12.6239 39.6703 12.996 38.736 13.7402C37.8176 14.4845 36.9783 15.4979 36.2182 16.7806L35.3394 13.4552C36.4637 13.0435 37.5959 12.7268 38.736 12.5051C39.892 12.2676 40.9846 12.1488 42.0139 12.1488C43.7715 12.1488 45.1888 12.4972 46.2656 13.1939C47.3423 13.8907 47.8807 14.9595 47.8807 16.4005V26.3291H43.1302V24.0726C42.576 24.7852 41.8793 25.4028 41.04 25.9253C40.2007 26.432 39.3377 26.6854 38.451 26.6854ZM40.8025 24.999C41.3884 24.999 42.1643 24.5318 43.1302 23.5976V15.8305C41.5151 16.4797 40.3274 17.2398 39.5673 18.1107C38.8073 18.9816 38.4272 20.1772 38.4272 21.6973C38.4272 22.6316 38.6489 23.4155 39.0923 24.0489C39.5357 24.6823 40.1057 24.999 40.8025 24.999ZM53.9816 26.7091C53.2215 26.7091 52.509 26.535 51.8439 26.1866C51.1947 25.8224 50.6721 25.2998 50.2762 24.6189C49.8803 23.9222 49.6824 23.0908 49.6824 22.1249V12.6001H54.4329V24.4764C54.4329 24.9039 54.5121 25.2286 54.6704 25.4503C54.8446 25.6561 55.0742 25.759 55.3593 25.759C55.7552 25.759 56.2064 25.5611 56.7132 25.1652C57.2357 24.7693 57.7108 24.2151 58.1383 23.5025C58.5817 22.79 58.9063 21.9982 59.1122 21.1273V12.6001H63.8627V26.3291H59.1122V22.7187H59.0172C58.4629 24.033 57.7425 25.0306 56.8557 25.7115C55.9689 26.3766 55.0109 26.7091 53.9816 26.7091Z" fill="black"/>
</svg>
