<svg width="76" height="36" viewBox="0 0 76 36" fill="none" xmlns="http://www.w3.org/2000/svg">
<path fill-rule="evenodd" clip-rule="evenodd" d="M0.690735 20.6114V20.4886C3.82862 19.7622 14.3784 14.6438 20.6542 16.3872C26.93 18.1305 32.0696 20.9504 38.3454 23.4201C44.6211 25.8414 50.8969 25.8414 57.1727 24.776C63.4485 23.7591 69.7242 21.6768 72.8621 20.6114L76 19.546V25.8414H72.8621C69.7242 25.8414 63.4485 25.8414 57.1727 25.8414C50.8969 25.8414 44.6211 25.8414 38.3454 25.8414C32.0696 25.8414 25.7938 25.8414 19.5181 25.8414C13.2423 25.8414 6.96651 25.8414 3.82862 25.8414H0.690735V20.6114Z" fill="url(#paint0_linear_96_112)"/>
<path d="M8.56129 26L15.1767 9.41424H19.902L26.5174 26H24.6273C24.6273 23.6531 24.2886 21.6212 23.6113 19.9044L23.1861 18.8176H16.1454L13.2866 26H8.56129ZM19.6657 10.0049L16.3344 18.345H22.997L19.6657 10.0049ZM32.4129 26H27.6876V9.41424H32.4129V26ZM38.9375 26.3544C37.8507 26.3544 36.9529 26.1654 36.2441 25.7874C35.5353 25.4093 35.0155 24.9289 34.6848 24.3461C34.354 23.7634 34.1886 23.1491 34.1886 22.5033C34.1886 21.196 34.606 20.0934 35.4408 19.1956C36.2913 18.2978 37.3073 17.5811 38.4886 17.0456C39.6699 16.4943 41.182 15.9036 43.0249 15.2736L43.5919 15.0846C43.5919 13.2732 43.0485 12.3675 41.9617 12.3675C41.0639 12.3675 40.1503 12.7377 39.221 13.478C38.3075 14.2183 37.4727 15.2263 36.7166 16.5022L35.8424 13.1945C36.9608 12.7849 38.087 12.4699 39.221 12.2494C40.3708 12.0131 41.4577 11.895 42.4815 11.895C44.2298 11.895 45.6395 12.2415 46.7106 12.9346C47.7817 13.6276 48.3172 14.6908 48.3172 16.1241V26H43.5919V23.7555C43.0406 24.4643 42.3476 25.0786 41.5128 25.5984C40.678 26.1024 39.8196 26.3544 38.9375 26.3544ZM41.2765 24.6769C41.8593 24.6769 42.6311 24.2123 43.5919 23.283V15.5571C41.9853 16.2029 40.804 16.9589 40.048 17.8253C39.2919 18.6916 38.9139 19.8808 38.9139 21.3928C38.9139 22.3222 39.1344 23.1018 39.5754 23.7319C40.0164 24.3619 40.5835 24.6769 41.2765 24.6769ZM54.3857 26.378C53.6296 26.378 52.9209 26.2048 52.2593 25.8582C51.6135 25.496 51.0937 24.9762 50.7 24.2989C50.3062 23.6059 50.1093 22.7789 50.1093 21.8181V12.3439H54.8346V24.1571C54.8346 24.5824 54.9133 24.9053 55.0709 25.1258C55.2441 25.3306 55.4725 25.433 55.756 25.433C56.1498 25.433 56.5987 25.2361 57.1027 24.8423C57.6225 24.4485 58.095 23.8972 58.5203 23.1885C58.9613 22.4797 59.2842 21.6921 59.489 20.8258V12.3439H64.2143V26H59.489V22.4088H59.3945C58.8432 23.7161 58.1265 24.7084 57.2445 25.3857C56.3624 26.0473 55.4095 26.378 54.3857 26.378Z" fill="black"/>
<defs>
<linearGradient id="paint0_linear_96_112" x1="0.690735" y1="16.5356" x2="74.4525" y2="32.8418" gradientUnits="userSpaceOnUse">
<stop stop-color="#FF0000"/>
<stop offset="0.9998" stop-color="#FF1704" stop-opacity="0.613922"/>
<stop offset="0.9999" stop-color="#FF3508" stop-opacity="0.114583"/>
<stop offset="1" stop-color="#FF3002" stop-opacity="0"/>
</linearGradient>
</defs>
</svg>
