<svg width="8" height="8" viewBox="0 0 8 8" fill="none" xmlns="http://www.w3.org/2000/svg">
<path d="M6.91667 0.25C7.13768 0.25 7.34964 0.337797 7.50592 0.494078C7.6622 0.650358 7.75 0.86232 7.75 1.08333V6.91667C7.75 7.13768 7.6622 7.34964 7.50592 7.50592C7.34964 7.6622 7.13768 7.75 6.91667 7.75H1.08333C0.86232 7.75 0.650358 7.6622 0.494078 7.50592C0.337797 7.34964 0.25 7.13768 0.25 6.91667V1.08333C0.25 0.86232 0.337797 0.650358 0.494078 0.494078C0.650358 0.337797 0.86232 0.25 1.08333 0.25H6.91667ZM6.70833 6.70833V4.5C6.70833 4.13975 6.56522 3.79425 6.31049 3.53951C6.05575 3.28478 5.71025 3.14167 5.35 3.14167C4.99583 3.14167 4.58333 3.35833 4.38333 3.68333V3.22083H3.22083V6.70833H4.38333V4.65417C4.38333 4.33333 4.64167 4.07083 4.9625 4.07083C5.11721 4.07083 5.26558 4.13229 5.37498 4.24169C5.48438 4.35108 5.54583 4.49946 5.54583 4.65417V6.70833H6.70833ZM1.86667 2.56667C2.05232 2.56667 2.23037 2.49292 2.36164 2.36164C2.49292 2.23037 2.56667 2.05232 2.56667 1.86667C2.56667 1.47917 2.25417 1.1625 1.86667 1.1625C1.67991 1.1625 1.5008 1.23669 1.36875 1.36875C1.23669 1.5008 1.1625 1.67991 1.1625 1.86667C1.1625 2.25417 1.47917 2.56667 1.86667 2.56667ZM2.44583 6.70833V3.22083H1.29167V6.70833H2.44583Z" fill="white"/>
</svg>
