<svg width="8" height="8" viewBox="0 0 8 8" fill="none" xmlns="http://www.w3.org/2000/svg">
<path d="M5.91667 1.425C5.63185 1.09984 5.47488 0.682263 5.475 0.25H4.1875V5.41667C4.17757 5.69626 4.05953 5.96109 3.85824 6.15539C3.65695 6.34969 3.38811 6.45829 3.10834 6.45833C2.51667 6.45833 2.025 5.975 2.025 5.375C2.025 4.65833 2.71667 4.12083 3.42917 4.34167V3.025C1.99167 2.83333 0.733337 3.95 0.733337 5.375C0.733337 6.7625 1.88334 7.75 3.10417 7.75C4.4125 7.75 5.475 6.6875 5.475 5.375V2.75417C5.99709 3.1291 6.62391 3.33027 7.26667 3.32917V2.04167C7.26667 2.04167 6.48334 2.07917 5.91667 1.425Z" fill="white"/>
</svg>
