<svg width="10" height="8" viewBox="0 0 10 8" fill="none" xmlns="http://www.w3.org/2000/svg">
<path d="M9.35833 1.49996C9.0375 1.64579 8.69166 1.74163 8.33333 1.78746C8.7 1.56663 8.98333 1.21663 9.11666 0.795793C8.77083 1.00413 8.3875 1.14996 7.98333 1.23329C7.65416 0.874959 7.19166 0.666626 6.66666 0.666626C5.6875 0.666626 4.8875 1.46663 4.8875 2.45413C4.8875 2.59579 4.90416 2.73329 4.93333 2.86246C3.45 2.78746 2.12916 2.07496 1.25 0.995793C1.09583 1.25829 1.00833 1.56663 1.00833 1.89163C1.00833 2.51246 1.32083 3.06246 1.80416 3.37496C1.50833 3.37496 1.23333 3.29163 0.991663 3.16663V3.17913C0.991663 4.04579 1.60833 4.77079 2.425 4.93329C2.1628 5.00505 1.88754 5.01503 1.62083 4.96246C1.734 5.31766 1.95564 5.62846 2.25459 5.85118C2.55354 6.0739 2.91477 6.19733 3.2875 6.20413C2.65568 6.70431 1.87249 6.97467 1.06666 6.97079C0.924996 6.97079 0.783329 6.96246 0.641663 6.94579C1.43333 7.45413 2.375 7.74996 3.38333 7.74996C6.66666 7.74996 8.47083 5.02496 8.47083 2.66246C8.47083 2.58329 8.47083 2.50829 8.46666 2.42913C8.81666 2.17913 9.11666 1.86246 9.35833 1.49996Z" fill="white"/>
</svg>
