<svg width="10" height="6" viewBox="0 0 10 6" fill="none" xmlns="http://www.w3.org/2000/svg">
<path d="M4.16668 4.25004L6.32918 3.00004L4.16668 1.75004V4.25004ZM8.98334 0.987541C9.03751 1.18337 9.07501 1.44587 9.10001 1.77921C9.12918 2.11254 9.14168 2.40004 9.14168 2.65004L9.16668 3.00004C9.16668 3.91254 9.10001 4.58337 8.98334 5.01254C8.87918 5.38754 8.63751 5.62921 8.26251 5.73337C8.06668 5.78754 7.70834 5.82504 7.15834 5.85004C6.61668 5.87921 6.12084 5.89171 5.66251 5.89171L5.00001 5.91671C3.25418 5.91671 2.16668 5.85004 1.73751 5.73337C1.36251 5.62921 1.12084 5.38754 1.01668 5.01254C0.96251 4.81671 0.92501 4.55421 0.90001 4.22087C0.870844 3.88754 0.858343 3.60004 0.858343 3.35004L0.833344 3.00004C0.833344 2.08754 0.90001 1.41671 1.01668 0.987541C1.12084 0.612541 1.36251 0.370874 1.73751 0.266707C1.93334 0.212541 2.29168 0.175041 2.84168 0.150041C3.38334 0.120874 3.87918 0.108374 4.33751 0.108374L5.00001 0.083374C6.74584 0.083374 7.83334 0.150041 8.26251 0.266707C8.63751 0.370874 8.87918 0.612541 8.98334 0.987541Z" fill="white"/>
</svg>
